<svg width="80" height="80" viewBox="0 0 80 80" fill="none" xmlns="http://www.w3.org/2000/svg">
<path d="M58.6533 42.56C59.9038 43.8105 61.5998 44.513 63.3683 44.513C65.1368 44.513 66.8328 43.8105 68.0833 42.56C69.3338 41.3095 70.0363 39.6135 70.0363 37.845C70.0363 36.0765 69.3338 34.3805 68.0833 33.13L62.19 27.24C63.4405 28.4901 65.1363 29.1922 66.9045 29.1918C67.78 29.1917 68.6469 29.0191 69.4557 28.6839C70.2645 28.3487 70.9994 27.8575 71.6183 27.2383C72.2373 26.6192 72.7282 25.8841 73.0631 25.0752C73.398 24.2663 73.5703 23.3993 73.5702 22.5238C73.57 21.6483 73.3974 20.7814 73.0622 19.9726C72.727 19.1638 72.2358 18.429 71.6167 17.81L62.19 8.38335C60.9399 7.13285 59.2443 6.43015 57.4762 6.42984C55.708 6.42953 54.0121 7.13163 52.7617 8.38168C51.5112 9.63173 50.8085 11.3273 50.8081 13.0955C50.8078 14.8637 51.5099 16.5595 52.76 17.81L46.87 11.9167C46.2508 11.2975 45.5157 10.8063 44.7067 10.4712C43.8977 10.1361 43.0306 9.96366 42.155 9.96366C41.2793 9.96366 40.4122 10.1361 39.6032 10.4712C38.7942 10.8063 38.0592 11.2975 37.44 11.9167C36.8208 12.5359 36.3296 13.2709 35.9945 14.0799C35.6594 14.8889 35.487 15.756 35.487 16.6317C35.487 17.5073 35.6594 18.3744 35.9945 19.1834C36.3296 19.9924 36.8208 20.7275 37.44 21.3467L58.6533 42.56Z" stroke="white" stroke-width="6.66667" stroke-linecap="round" stroke-linejoin="round"/>
<path d="M8.33333 71.6667L13 67" stroke="white" stroke-width="6.66667" stroke-linecap="round" stroke-linejoin="round"/>
<path d="M67 13L71.6667 8.33334" stroke="white" stroke-width="6.66667" stroke-linecap="round" stroke-linejoin="round"/>
<path d="M17.81 71.6167C19.0601 72.8671 20.7557 73.5698 22.5238 73.5702C23.3993 73.5703 24.2663 73.398 25.0752 73.0631C25.8841 72.7282 26.6192 72.2373 27.2384 71.6183C27.8575 70.9994 28.3487 70.2645 28.6839 69.4557C29.0191 68.6469 29.1917 67.78 29.1919 66.9045C29.192 66.029 29.0197 65.162 28.6848 64.3531C28.3499 63.5442 27.859 62.8092 27.24 62.19L33.13 68.0833C34.3805 69.3338 36.0766 70.0363 37.845 70.0363C39.6135 70.0363 41.3095 69.3338 42.56 68.0833C43.8105 66.8328 44.513 65.1368 44.513 63.3683C44.513 61.5998 43.8105 59.9038 42.56 58.6533L21.3467 37.44C20.7275 36.8208 19.9924 36.3296 19.1834 35.9945C18.3744 35.6594 17.5074 35.487 16.6317 35.487C15.756 35.487 14.889 35.6594 14.08 35.9945C13.271 36.3296 12.5359 36.8208 11.9167 37.44C11.2975 38.0592 10.8063 38.7942 10.4712 39.6032C10.1362 40.4122 9.96368 41.2793 9.96368 42.155C9.96368 43.0306 10.1362 43.8977 10.4712 44.7067C10.8063 45.5157 11.2975 46.2508 11.9167 46.87L17.81 52.76C16.5595 51.5099 14.8637 50.8078 13.0955 50.8081C11.3274 50.8085 9.63175 51.5112 8.38169 52.7617C7.13164 54.0121 6.42954 55.708 6.42986 57.4762C6.43017 59.2443 7.13287 60.9399 8.38336 62.19L17.81 71.6167Z" stroke="white" stroke-width="6.66667" stroke-linecap="round" stroke-linejoin="round"/>
<path d="M32 48L48 32" stroke="white" stroke-width="6.66667" stroke-linecap="round" stroke-linejoin="round"/>
</svg>
